<svg width="35" height="35" viewBox="0 0 130 200" fill="none" xmlns="http://www.w3.org/2000/svg">
	<path d="M11.27 0.609985C13.9859 0.609985 16.5904 1.68884 18.5108 3.60921C20.4312 5.52958 21.51 8.13417 21.51 10.85V38.59C21.51 89.15 21.51 107.51 21.51 158.07C21.51 170.36 30.25 179.16 41.74 178.67C46.1351 178.383 50.2975 176.592 53.528 173.599C56.7585 170.605 58.8602 166.591 59.48 162.23C59.7101 159.811 59.8003 157.38 59.75 154.95C59.75 105.69 59.75 87.86 59.75 38.59V10.91C59.758 8.19487 60.8407 5.59338 62.7616 3.67443C64.6824 1.75549 67.2849 0.675259 70 0.669983C72.7011 0.66726 75.2937 1.73291 77.2121 3.63442C79.1304 5.53593 80.2189 8.11897 80.24 10.82C80.31 21.68 80.39 37.47 80.39 38.59C80.39 88.99 80.39 106.59 80.39 157.02C80.39 178.02 68.39 194.08 49.88 198.2C24.88 203.77 1.20004 184.2 1.07004 158.51C0.88004 118.51 1.07004 78.57 1.07004 38.59V10.86C1.07786 8.15256 2.15343 5.55753 4.06319 3.63841C5.97295 1.71929 8.56269 0.631044 11.27 0.609985Z" fill="#F4F4F4"/>
	<path d="M70.07 0.529986C72.9874 0.529986 75.7853 1.68891 77.8482 3.75181C79.9111 5.81471 81.07 8.61261 81.07 11.53V38.53C81.07 88.62 81.07 106.53 81.07 156.65C81.07 171.09 89.35 178.88 104.67 178.9H119.08C121.732 178.9 124.276 179.954 126.151 181.829C128.026 183.704 129.08 186.248 129.08 188.9C129.082 191.493 128.076 193.985 126.276 195.85C124.476 197.716 122.021 198.809 119.43 198.9C110.19 199.2 100.98 199.62 92.03 198.41C73.24 195.87 59.03 178.41 59.03 159.79C58.91 113.97 58.98 84.4 58.98 38.58V11.6C58.98 10.1446 59.267 8.70344 59.8246 7.35906C60.3822 6.01468 61.1994 4.79344 62.2294 3.76523C63.2595 2.73703 64.4822 1.92203 65.8276 1.36689C67.1729 0.811751 68.6146 0.527357 70.07 0.529986Z" fill="#37C794"/>
</svg>