<svg width="504" height="622" viewBox="0 0 504 622" fill="none" xmlns="http://www.w3.org/2000/svg">
<g id="Illustration">
<path id="Vector" d="M270.818 306.916C281.275 320.01 292.888 334.383 301.035 344.432C310.094 317.147 297.995 279.022 284.498 250.519C281.275 268.242 276.776 287 270.818 306.916Z" fill="#F2C94C"/>
<path id="Vector_2" d="M207.099 205.938C193.662 218.849 181.624 242.967 190.683 280.666C198.83 279.996 210.382 279.083 220.84 278.108C214.882 251.311 210.382 227.376 207.099 205.938Z" fill="#F2994A"/>
<path id="Vector_3" opacity="0.2" d="M236.04 340.23C160.891 51.1825 222.725 26.6385 246.072 16.7721C269.419 53.6796 331.192 149.663 255.982 351.741L236.04 340.23Z" fill="url(#paint0_linear)"/>
<path id="Vector_4" opacity="0.1" d="M258.171 323.603C183.022 34.6168 244.795 10.0119 268.203 0.145508C291.551 37.0529 353.324 133.037 278.114 335.114L258.171 323.603Z" fill="url(#paint1_linear)"/>
<path id="Vector_5" opacity="0.15" d="M255.982 351.741C331.192 149.663 269.419 53.6796 246.072 16.7721V346.016L255.982 351.741Z" fill="url(#paint2_linear)"/>
<path id="Vector_6" opacity="0.1" d="M268.447 118.542C268.447 136.143 258.111 144.426 245.343 137.056C232.575 129.687 222.239 109.406 222.239 91.805C222.239 74.204 232.575 65.9211 245.343 73.2904C258.111 80.6597 268.447 100.941 268.447 118.542Z" fill="white"/>
<path id="Vector_7" opacity="0.1" d="M263.887 417.151C258.597 408.502 256.043 397.54 253.794 387.917C251.179 376.833 248.99 367.393 243.518 365.018C237.256 362.277 234.459 369.22 230.507 378.843C228.197 384.507 225.461 391.206 221.448 397.357C217.131 392.789 212.571 389.013 207.768 386.273C187.643 374.64 170.862 384.689 166.91 408.685C164.174 406.614 161.438 404.726 158.641 403.082C126.356 384.446 100.212 405.579 100.212 450.404C100.212 495.168 126.356 546.57 158.581 565.207C189.893 583.295 215.49 563.867 216.949 521.783C222.846 532.745 230.69 541.942 239.384 546.936C241.634 548.215 243.822 549.189 245.89 549.798C258.415 577.387 277.08 601.14 297.935 613.199C335.631 635.002 366.213 610.397 366.274 558.264C366.274 506.131 335.692 446.141 297.995 424.337C285.531 417.151 273.919 414.958 263.887 417.151Z" fill="url(#paint3_linear)"/>
<path id="Vector_8" opacity="0.3" d="M324.626 217.753L489.212 312.945L489.273 398.88L339.218 312.092L324.687 316.843L324.626 217.753Z" fill="url(#paint4_linear)"/>
<path id="Vector_9" d="M441.362 328.049V304.723L503.5 340.656V363.982L441.362 328.049Z" fill="#F2C94C"/>
<path id="Vector_10" opacity="0.1" d="M366.943 263.126L402.998 283.955V291.507L366.943 270.678V263.126Z" fill="white"/>
<path id="Vector_11" opacity="0.1" d="M367.004 278.23L432.06 315.868V323.421L367.004 285.782V278.23Z" fill="white"/>
<path id="Vector_12" opacity="0.15" d="M367.004 293.334L451.212 342.057V349.609L367.004 300.886V293.334Z" fill="white"/>
<path id="Vector_13" d="M358.066 265.867C358.066 272.932 353.871 276.281 348.703 273.297C343.535 270.313 339.339 262.152 339.339 255.087C339.339 248.022 343.535 244.672 348.703 247.657C353.932 250.641 358.066 258.802 358.066 265.867Z" fill="#F2C94C"/>
<path id="Vector_14" opacity="0.3" d="M182.657 96.3728L18.0709 1.24179L18.1317 87.1764L168.187 173.903L182.718 195.463L182.657 96.3728Z" fill="url(#paint5_linear)"/>
<path id="Vector_15" d="M0.5 34.7386V11.4126L62.6378 47.3456V70.6716L0.5 34.7386Z" fill="#F2994A"/>
<path id="Vector_16" opacity="0.15" d="M140.341 92.8404L104.286 72.0115V79.5635L140.341 100.392V92.8404Z" fill="white"/>
<path id="Vector_17" opacity="0.15" d="M140.341 107.944L70.846 67.7482V75.3002L140.341 115.496V107.944Z" fill="white"/>
<path id="Vector_18" opacity="0.15" d="M140.34 123.048L56.1322 74.3258V81.8778L140.34 130.601V123.048Z" fill="white"/>
<path id="Vector_19" d="M149.217 105.813C149.217 112.878 153.412 121.039 158.58 124.023C163.748 127.007 167.944 123.658 167.944 116.593C167.944 109.528 163.748 101.367 158.58 98.3826C153.412 95.4593 149.217 98.748 149.217 105.813Z" fill="#F2994A"/>
<path id="Vector_20" opacity="0.2" d="M160.769 188.093L62.4551 131.27V182.551L160.769 239.374V188.093Z" fill="url(#paint6_linear)"/>
<path id="Vector_21" opacity="0.15" d="M87.6266 158.129L121.31 177.618V183.769L87.6266 164.28V158.129Z" fill="white"/>
<path id="Vector_22" opacity="0.15" d="M87.6266 170.492L150.616 206.912V213.125L87.6266 176.704V170.492Z" fill="white"/>
<path id="Vector_23" d="M82.4584 159.956C82.4584 164.158 79.9655 166.168 76.8647 164.402C73.7639 162.636 71.2711 157.763 71.2711 153.5C71.2711 149.298 73.7639 147.288 76.8647 149.054C79.9047 150.881 82.4584 155.754 82.4584 159.956Z" fill="#F2994A"/>
<path id="Vector_24" opacity="0.2" d="M452.732 226.828L354.418 170.005V221.286L452.732 278.169V226.828Z" fill="url(#paint7_linear)"/>
<path id="Vector_25" opacity="0.15" d="M379.589 196.924L413.273 216.413V222.565L379.589 203.075V196.924Z" fill="white"/>
<path id="Vector_26" opacity="0.15" d="M379.65 209.288L442.639 245.708V251.92L379.65 215.5V209.288Z" fill="white"/>
<path id="Vector_27" d="M374.421 198.751C374.421 202.954 371.928 204.963 368.828 203.197C365.727 201.431 363.234 196.559 363.234 192.296C363.234 188.093 365.727 186.083 368.828 187.85C371.928 189.677 374.421 194.549 374.421 198.751Z" fill="#F2C94C"/>
</g>
<defs>
<linearGradient id="paint0_linear" x1="333.682" y1="27.0202" x2="144.202" y2="354.739" gradientUnits="userSpaceOnUse">
<stop stop-color="white"/>
<stop offset="1" stop-color="white" stop-opacity="0"/>
</linearGradient>
<linearGradient id="paint1_linear" x1="355.807" y1="10.3982" x2="166.328" y2="338.117" gradientUnits="userSpaceOnUse">
<stop stop-color="white"/>
<stop offset="1" stop-color="white" stop-opacity="0"/>
</linearGradient>
<linearGradient id="paint2_linear" x1="298.437" y1="98.5422" x2="152.16" y2="362.031" gradientUnits="userSpaceOnUse">
<stop stop-color="white" stop-opacity="0"/>
<stop offset="1" stop-color="white"/>
</linearGradient>
<linearGradient id="paint3_linear" x1="284.712" y1="416.675" x2="202.872" y2="558.224" gradientUnits="userSpaceOnUse">
<stop stop-color="white"/>
<stop offset="1" stop-color="white" stop-opacity="0"/>
</linearGradient>
<linearGradient id="paint4_linear" x1="395.343" y1="220.536" x2="416.694" y2="393.411" gradientUnits="userSpaceOnUse">
<stop stop-color="white"/>
<stop offset="1" stop-color="white" stop-opacity="0"/>
</linearGradient>
<linearGradient id="paint5_linear" x1="146.764" y1="61.9627" x2="61.6673" y2="128.478" gradientUnits="userSpaceOnUse">
<stop stop-color="white"/>
<stop offset="1" stop-color="white" stop-opacity="0"/>
</linearGradient>
<linearGradient id="paint6_linear" x1="122.689" y1="166.063" x2="100.462" y2="204.507" gradientUnits="userSpaceOnUse">
<stop stop-color="white"/>
<stop offset="1" stop-color="white" stop-opacity="0"/>
</linearGradient>
<linearGradient id="paint7_linear" x1="414.69" y1="204.844" x2="392.462" y2="243.288" gradientUnits="userSpaceOnUse">
<stop stop-color="white"/>
<stop offset="1" stop-color="white" stop-opacity="0"/>
</linearGradient>
</defs>
</svg>
