<svg width="714" height="880" viewBox="0 0 714 880" fill="none" xmlns="http://www.w3.org/2000/svg">
<g id="Illustration">
<path id="Vector" d="M383.674 434.715C398.497 453.27 414.959 473.638 426.507 487.878C439.349 449.214 422.198 395.187 403.065 354.797C398.497 379.911 392.12 406.493 383.674 434.715Z" fill="#F2C94C"/>
<path id="Vector_2" d="M293.353 291.622C274.307 309.919 257.242 344.095 270.084 397.517C281.632 396.568 298.007 395.274 312.831 393.893C304.385 355.919 298.007 322.001 293.353 291.622Z" fill="#F2994A"/>
<path id="Vector_3" opacity="0.2" d="M334.376 481.923C227.853 72.3229 315.502 37.5424 348.597 23.5611C381.691 75.8614 469.254 211.877 362.645 498.234L334.376 481.923Z" fill="url(#paint0_linear)"/>
<path id="Vector_4" opacity="0.1" d="M365.748 458.362C259.224 48.8482 346.787 13.9813 379.968 0C413.063 52.3004 500.626 188.316 394.016 474.673L365.748 458.362Z" fill="url(#paint1_linear)"/>
<path id="Vector_5" opacity="0.15" d="M362.645 498.234C469.254 211.877 381.691 75.8614 348.597 23.5611V490.122L362.645 498.234Z" fill="url(#paint2_linear)"/>
<path id="Vector_6" opacity="0.1" d="M380.313 167.776C380.313 192.717 365.662 204.455 347.563 194.012C329.465 183.569 314.813 154.83 314.813 129.888C314.813 104.946 329.465 93.2086 347.563 103.651C365.662 114.094 380.313 142.834 380.313 167.776Z" fill="white"/>
<path id="Vector_7" opacity="0.1" d="M373.849 590.925C366.351 578.67 362.731 563.135 359.543 549.499C355.837 533.792 352.734 520.415 344.977 517.049C336.101 513.165 332.136 523.004 326.534 536.64C323.259 544.666 319.381 554.16 313.693 562.876C307.574 556.404 301.11 551.053 294.301 547.169C265.774 530.685 241.988 544.925 236.386 578.929C232.507 575.995 228.629 573.319 224.665 570.989C178.901 544.58 141.842 574.528 141.842 638.047C141.842 701.481 178.901 774.322 224.578 800.731C268.963 826.363 305.247 798.832 307.315 739.196C315.675 754.731 326.793 767.763 339.117 774.84C342.306 776.652 345.408 778.033 348.339 778.896C366.093 817.992 392.551 851.651 422.112 868.739C475.546 899.636 518.897 864.769 518.983 790.892C518.983 717.016 475.632 632.006 422.198 601.109C404.531 590.925 388.069 587.818 373.849 590.925Z" fill="url(#paint3_linear)"/>
<path id="Vector_8" opacity="0.3" d="M459.947 308.365L693.247 443.259L693.333 565.034L480.631 442.05L460.033 448.782L459.947 308.365Z" fill="url(#paint4_linear)"/>
<path id="Vector_9" d="M625.42 464.662V431.608L713.5 482.527V515.582L625.42 464.662Z" fill="#F2C94C"/>
<path id="Vector_10" opacity="0.1" d="M519.931 372.662L571.038 402.178V412.88L519.931 383.364V372.662Z" fill="white"/>
<path id="Vector_11" opacity="0.1" d="M520.017 394.065L612.234 447.401V458.103L520.017 404.767V394.065Z" fill="white"/>
<path id="Vector_12" opacity="0.15" d="M520.017 415.469L639.382 484.512V495.214L520.017 426.17V415.469Z" fill="white"/>
<path id="Vector_13" d="M507.348 376.546C507.348 386.557 501.401 391.304 494.076 387.075C486.75 382.846 480.803 371.281 480.803 361.27C480.803 351.258 486.75 346.512 494.076 350.741C501.488 354.969 507.348 366.534 507.348 376.546Z" fill="#F2C94C"/>
<path id="Vector_14" opacity="0.3" d="M258.707 136.361L25.4067 1.5535L25.4929 123.329L238.195 246.226L258.793 276.778L258.707 136.361Z" fill="url(#paint5_linear)"/>
<path id="Vector_15" d="M0.5 49.0208V15.9663L88.5801 66.8858V99.9404L0.5 49.0208Z" fill="#F2994A"/>
<path id="Vector_16" opacity="0.15" d="M198.723 131.355L147.616 101.839V112.541L198.723 142.057V131.355Z" fill="white"/>
<path id="Vector_17" opacity="0.15" d="M198.723 152.759L100.215 95.7977V106.499L198.723 163.46V152.759Z" fill="white"/>
<path id="Vector_18" opacity="0.15" d="M198.723 174.162L79.3584 105.119V115.82L198.723 184.864V174.162Z" fill="white"/>
<path id="Vector_19" d="M211.306 149.738C211.306 159.749 217.252 171.314 224.578 175.543C231.904 179.772 237.85 175.025 237.85 165.014C237.85 155.002 231.904 143.438 224.578 139.209C217.252 135.066 211.306 139.727 211.306 149.738Z" fill="#F2994A"/>
<path id="Vector_20" opacity="0.2" d="M227.681 266.335L88.321 185.813V258.481L227.681 339.003V266.335Z" fill="url(#paint6_linear)"/>
<path id="Vector_21" opacity="0.15" d="M124.002 223.873L171.747 251.491V260.207L124.002 232.59V223.873Z" fill="white"/>
<path id="Vector_22" opacity="0.15" d="M124.002 241.393L213.288 293.003V301.806L124.002 250.196V241.393Z" fill="white"/>
<path id="Vector_23" d="M116.676 226.462C116.676 232.417 113.142 235.265 108.747 232.763C104.351 230.26 100.818 223.355 100.818 217.314C100.818 211.359 104.351 208.511 108.747 211.014C113.056 213.603 116.676 220.507 116.676 226.462Z" fill="#F2994A"/>
<path id="Vector_24" opacity="0.2" d="M641.536 321.224L502.177 240.703V313.371L641.536 393.979V321.224Z" fill="url(#paint7_linear)"/>
<path id="Vector_25" opacity="0.15" d="M537.857 278.849L585.603 306.466V315.183L537.857 287.566V278.849Z" fill="white"/>
<path id="Vector_26" opacity="0.15" d="M537.943 296.369L627.23 347.979V356.782L537.943 305.172V296.369Z" fill="white"/>
<path id="Vector_27" d="M530.531 281.438C530.531 287.393 526.998 290.241 522.602 287.738C518.207 285.236 514.673 278.331 514.673 272.29C514.673 266.335 518.207 263.487 522.602 265.99C526.998 268.579 530.531 275.483 530.531 281.438Z" fill="#F2C94C"/>
</g>
<defs>
<linearGradient id="paint0_linear" x1="472.783" y1="38.0832" x2="204.318" y2="502.553" gradientUnits="userSpaceOnUse">
<stop stop-color="white"/>
<stop offset="1" stop-color="white" stop-opacity="0"/>
</linearGradient>
<linearGradient id="paint1_linear" x1="504.146" y1="14.5287" x2="235.682" y2="478.998" gradientUnits="userSpaceOnUse">
<stop stop-color="white"/>
<stop offset="1" stop-color="white" stop-opacity="0"/>
</linearGradient>
<linearGradient id="paint2_linear" x1="422.824" y1="139.435" x2="215.572" y2="512.87" gradientUnits="userSpaceOnUse">
<stop stop-color="white" stop-opacity="0"/>
<stop offset="1" stop-color="white"/>
</linearGradient>
<linearGradient id="paint3_linear" x1="403.369" y1="590.251" x2="287.413" y2="790.866" gradientUnits="userSpaceOnUse">
<stop stop-color="white"/>
<stop offset="1" stop-color="white" stop-opacity="0"/>
</linearGradient>
<linearGradient id="paint4_linear" x1="560.188" y1="312.308" x2="590.435" y2="557.286" gradientUnits="userSpaceOnUse">
<stop stop-color="white"/>
<stop offset="1" stop-color="white" stop-opacity="0"/>
</linearGradient>
<linearGradient id="paint5_linear" x1="207.829" y1="87.5993" x2="87.2318" y2="181.892" gradientUnits="userSpaceOnUse">
<stop stop-color="white"/>
<stop offset="1" stop-color="white" stop-opacity="0"/>
</linearGradient>
<linearGradient id="paint6_linear" x1="173.703" y1="235.116" x2="142.21" y2="289.602" gradientUnits="userSpaceOnUse">
<stop stop-color="white"/>
<stop offset="1" stop-color="white" stop-opacity="0"/>
</linearGradient>
<linearGradient id="paint7_linear" x1="587.612" y1="290.072" x2="556.119" y2="344.558" gradientUnits="userSpaceOnUse">
<stop stop-color="white"/>
<stop offset="1" stop-color="white" stop-opacity="0"/>
</linearGradient>
</defs>
</svg>
